<svg width="811" height="323" viewBox="0 0 811 323" fill="none" xmlns="http://www.w3.org/2000/svg">
<rect x="0.5" y="0.5" width="810" height="322" rx="14.5" fill="#0F0F0F" stroke="#6D6D6D"/>
<path d="M57.225 55H51.675L45.8 46.1V55H40.25V37.3H45.8L51.675 46.35V37.3H57.225V55ZM65.2824 41.725V43.9H70.7824V48.075H65.2824V50.575H71.5324V55H59.7324V37.3H71.5324V41.725H65.2824ZM99.124 37.3L95.074 55H88.174L86.124 44.95L84.074 55H77.174L73.124 37.3H79.099L80.699 48.45L83.099 37.3H89.149L91.549 48.45L93.149 37.3H99.124Z" fill="white"/>
<path d="M239.2 158.2H260.6V175H217V104.2H239.2V158.2ZM327.286 118.6V175H305.086V166.4C303.353 169.067 301.019 171.233 298.086 172.9C295.219 174.567 291.786 175.4 287.786 175.4C281.319 175.4 276.253 173.233 272.586 168.9C268.986 164.567 267.186 158.7 267.186 151.3V118.6H289.286V148.5C289.286 151.167 289.986 153.3 291.386 154.9C292.853 156.433 294.786 157.2 297.186 157.2C299.653 157.2 301.586 156.433 302.986 154.9C304.386 153.3 305.086 151.167 305.086 148.5V118.6H327.286ZM412.613 118.2C419.813 118.2 425.379 120.367 429.313 124.7C433.313 129.033 435.313 134.9 435.313 142.3V175H413.213V145.1C413.213 142.7 412.479 140.833 411.013 139.5C409.613 138.1 407.713 137.4 405.313 137.4C402.846 137.4 400.913 138.1 399.513 139.5C398.113 140.833 397.413 142.7 397.413 145.1V175H375.313V145.1C375.313 142.7 374.579 140.833 373.113 139.5C371.713 138.1 369.813 137.4 367.413 137.4C364.946 137.4 363.013 138.1 361.613 139.5C360.213 140.833 359.513 142.7 359.513 145.1V175H337.313V118.6H359.513V126.2C361.113 123.8 363.279 121.867 366.013 120.4C368.813 118.933 372.079 118.2 375.813 118.2C379.879 118.2 383.479 119.1 386.613 120.9C389.746 122.633 392.246 125.1 394.113 128.3C396.179 125.367 398.813 122.967 402.013 121.1C405.213 119.167 408.746 118.2 412.613 118.2ZM456.13 114.1C452.263 114.1 449.163 113.067 446.83 111C444.496 108.933 443.33 106.333 443.33 103.2C443.33 100 444.496 97.3667 446.83 95.3C449.163 93.1667 452.263 92.1 456.13 92.1C459.93 92.1 462.996 93.1667 465.33 95.3C467.663 97.3667 468.83 100 468.83 103.2C468.83 106.333 467.663 108.933 465.33 111C462.996 113.067 459.93 114.1 456.13 114.1ZM467.13 118.6V175H444.93V118.6H467.13ZM498.856 104.2V144.1C498.856 147.367 499.556 149.967 500.956 151.9C502.423 153.767 504.756 154.7 507.956 154.7C511.156 154.7 513.523 153.767 515.056 151.9C516.59 149.967 517.356 147.367 517.356 144.1V104.2H539.456V144.1C539.456 150.833 538.056 156.6 535.256 161.4C532.456 166.133 528.623 169.7 523.756 172.1C518.89 174.5 513.456 175.7 507.456 175.7C501.456 175.7 496.123 174.5 491.456 172.1C486.856 169.7 483.256 166.133 480.656 161.4C478.056 156.667 476.756 150.9 476.756 144.1V104.2H498.856ZM571.231 104.2V175H549.031V104.2H571.231Z" fill="url(#paint0_linear_425_140)"/>
<path d="M57.225 101H51.675L45.8 92.1V101H40.25V83.3H45.8L51.675 92.35V83.3H57.225V101ZM65.2824 87.725V89.9H70.7824V94.075H65.2824V96.575H71.5324V101H59.7324V83.3H71.5324V87.725H65.2824ZM99.124 83.3L95.074 101H88.174L86.124 90.95L84.074 101H77.174L73.124 83.3H79.099L80.699 94.45L83.099 83.3H89.149L91.549 94.45L93.149 83.3H99.124Z" fill="white"/>
<path d="M57.225 143H51.675L45.8 134.1V143H40.25V125.3H45.8L51.675 134.35V125.3H57.225V143ZM65.2824 129.725V131.9H70.7824V136.075H65.2824V138.575H71.5324V143H59.7324V125.3H71.5324V129.725H65.2824ZM99.124 125.3L95.074 143H88.174L86.124 132.95L84.074 143H77.174L73.124 125.3H79.099L80.699 136.45L83.099 125.3H89.149L91.549 136.45L93.149 125.3H99.124Z" fill="white"/>
<path d="M57.225 189H51.675L45.8 180.1V189H40.25V171.3H45.8L51.675 180.35V171.3H57.225V189ZM65.2824 175.725V177.9H70.7824V182.075H65.2824V184.575H71.5324V189H59.7324V171.3H71.5324V175.725H65.2824ZM99.124 171.3L95.074 189H88.174L86.124 178.95L84.074 189H77.174L73.124 171.3H79.099L80.699 182.45L83.099 171.3H89.149L91.549 182.45L93.149 171.3H99.124Z" fill="white"/>
<path d="M57.225 231H51.675L45.8 222.1V231H40.25V213.3H45.8L51.675 222.35V213.3H57.225V231ZM65.2824 217.725V219.9H70.7824V224.075H65.2824V226.575H71.5324V231H59.7324V213.3H71.5324V217.725H65.2824ZM99.124 213.3L95.074 231H88.174L86.124 220.95L84.074 231H77.174L73.124 213.3H79.099L80.699 224.45L83.099 213.3H89.149L91.549 224.45L93.149 213.3H99.124Z" fill="white"/>
<path d="M57.225 277H51.675L45.8 268.1V277H40.25V259.3H45.8L51.675 268.35V259.3H57.225V277ZM65.2824 263.725V265.9H70.7824V270.075H65.2824V272.575H71.5324V277H59.7324V259.3H71.5324V263.725H65.2824ZM99.124 259.3L95.074 277H88.174L86.124 266.95L84.074 277H77.174L73.124 259.3H79.099L80.699 270.45L83.099 259.3H89.149L91.549 270.45L93.149 259.3H99.124Z" fill="white"/>
<mask id="path-9-outside-1_425_140" maskUnits="userSpaceOnUse" x="710" y="36" width="62" height="20" fill="black">
<rect fill="white" x="710" y="36" width="62" height="20"/>
<path d="M728.225 55H722.675L716.8 46.1V55H711.25V37.3H716.8L722.675 46.35V37.3H728.225V55ZM736.282 41.725V43.9H741.782V48.075H736.282V50.575H742.532V55H730.732V37.3H742.532V41.725H736.282ZM770.124 37.3L766.074 55H759.174L757.124 44.95L755.074 55H748.174L744.124 37.3H750.099L751.699 48.45L754.099 37.3H760.149L762.549 48.45L764.149 37.3H770.124Z"/>
</mask>
<path d="M728.225 55V56H729.225V55H728.225ZM722.675 55L721.84 55.5509L722.137 56H722.675V55ZM716.8 46.1L717.635 45.5491L715.8 42.7699V46.1H716.8ZM716.8 55V56H717.8V55H716.8ZM711.25 55H710.25V56H711.25V55ZM711.25 37.3V36.3H710.25V37.3H711.25ZM716.8 37.3L717.639 36.7555L717.343 36.3H716.8V37.3ZM722.675 46.35L721.836 46.8945L723.675 49.727V46.35H722.675ZM722.675 37.3V36.3H721.675V37.3H722.675ZM728.225 37.3H729.225V36.3H728.225V37.3ZM728.225 54H722.675V56H728.225V54ZM723.51 54.4491L717.635 45.5491L715.965 46.6509L721.84 55.5509L723.51 54.4491ZM715.8 46.1V55H717.8V46.1H715.8ZM716.8 54H711.25V56H716.8V54ZM712.25 55V37.3H710.25V55H712.25ZM711.25 38.3H716.8V36.3H711.25V38.3ZM715.961 37.8445L721.836 46.8945L723.514 45.8055L717.639 36.7555L715.961 37.8445ZM723.675 46.35V37.3H721.675V46.35H723.675ZM722.675 38.3H728.225V36.3H722.675V38.3ZM727.225 37.3V55H729.225V37.3H727.225ZM736.282 41.725V40.725H735.282V41.725H736.282ZM736.282 43.9H735.282V44.9H736.282V43.9ZM741.782 43.9H742.782V42.9H741.782V43.9ZM741.782 48.075V49.075H742.782V48.075H741.782ZM736.282 48.075V47.075H735.282V48.075H736.282ZM736.282 50.575H735.282V51.575H736.282V50.575ZM742.532 50.575H743.532V49.575H742.532V50.575ZM742.532 55V56H743.532V55H742.532ZM730.732 55H729.732V56H730.732V55ZM730.732 37.3V36.3H729.732V37.3H730.732ZM742.532 37.3H743.532V36.3H742.532V37.3ZM742.532 41.725V42.725H743.532V41.725H742.532ZM735.282 41.725V43.9H737.282V41.725H735.282ZM736.282 44.9H741.782V42.9H736.282V44.9ZM740.782 43.9V48.075H742.782V43.9H740.782ZM741.782 47.075H736.282V49.075H741.782V47.075ZM735.282 48.075V50.575H737.282V48.075H735.282ZM736.282 51.575H742.532V49.575H736.282V51.575ZM741.532 50.575V55H743.532V50.575H741.532ZM742.532 54H730.732V56H742.532V54ZM731.732 55V37.3H729.732V55H731.732ZM730.732 38.3H742.532V36.3H730.732V38.3ZM741.532 37.3V41.725H743.532V37.3H741.532ZM742.532 40.725H736.282V42.725H742.532V40.725ZM770.124 37.3L771.099 37.523L771.379 36.3H770.124V37.3ZM766.074 55V56H766.871L767.049 55.223L766.074 55ZM759.174 55L758.194 55.1999L758.357 56H759.174V55ZM757.124 44.95L758.104 44.7501L756.144 44.7501L757.124 44.95ZM755.074 55V56H755.891L756.054 55.1999L755.074 55ZM748.174 55L747.199 55.223L747.377 56H748.174V55ZM744.124 37.3V36.3H742.869L743.149 37.523L744.124 37.3ZM750.099 37.3L751.089 37.158L750.966 36.3H750.099V37.3ZM751.699 48.45L750.709 48.592L752.677 48.6604L751.699 48.45ZM754.099 37.3V36.3H753.291L753.121 37.0896L754.099 37.3ZM760.149 37.3L761.127 37.0896L760.957 36.3H760.149V37.3ZM762.549 48.45L761.571 48.6604L763.539 48.592L762.549 48.45ZM764.149 37.3V36.3H763.282L763.159 37.158L764.149 37.3ZM769.149 37.077L765.099 54.777L767.049 55.223L771.099 37.523L769.149 37.077ZM766.074 54H759.174V56H766.074V54ZM760.154 54.8001L758.104 44.7501L756.144 45.1499L758.194 55.1999L760.154 54.8001ZM756.144 44.7501L754.094 54.8001L756.054 55.1999L758.104 45.1499L756.144 44.7501ZM755.074 54H748.174V56H755.074V54ZM749.149 54.777L745.099 37.077L743.149 37.523L747.199 55.223L749.149 54.777ZM744.124 38.3H750.099V36.3H744.124V38.3ZM749.109 37.442L750.709 48.592L752.689 48.308L751.089 37.158L749.109 37.442ZM752.677 48.6604L755.077 37.5104L753.121 37.0896L750.721 48.2396L752.677 48.6604ZM754.099 38.3H760.149V36.3H754.099V38.3ZM759.171 37.5104L761.571 48.6604L763.527 48.2396L761.127 37.0896L759.171 37.5104ZM763.539 48.592L765.139 37.442L763.159 37.158L761.559 48.308L763.539 48.592ZM764.149 38.3H770.124V36.3H764.149V38.3Z" fill="white" mask="url(#path-9-outside-1_425_140)"/>
<mask id="path-11-outside-2_425_140" maskUnits="userSpaceOnUse" x="710" y="82" width="62" height="20" fill="black">
<rect fill="white" x="710" y="82" width="62" height="20"/>
<path d="M728.225 101H722.675L716.8 92.1V101H711.25V83.3H716.8L722.675 92.35V83.3H728.225V101ZM736.282 87.725V89.9H741.782V94.075H736.282V96.575H742.532V101H730.732V83.3H742.532V87.725H736.282ZM770.124 83.3L766.074 101H759.174L757.124 90.95L755.074 101H748.174L744.124 83.3H750.099L751.699 94.45L754.099 83.3H760.149L762.549 94.45L764.149 83.3H770.124Z"/>
</mask>
<path d="M728.225 101V102H729.225V101H728.225ZM722.675 101L721.84 101.551L722.137 102H722.675V101ZM716.8 92.1L717.635 91.5491L715.8 88.7699V92.1H716.8ZM716.8 101V102H717.8V101H716.8ZM711.25 101H710.25V102H711.25V101ZM711.25 83.3V82.3H710.25V83.3H711.25ZM716.8 83.3L717.639 82.7555L717.343 82.3H716.8V83.3ZM722.675 92.35L721.836 92.8945L723.675 95.727V92.35H722.675ZM722.675 83.3V82.3H721.675V83.3H722.675ZM728.225 83.3H729.225V82.3H728.225V83.3ZM728.225 100H722.675V102H728.225V100ZM723.51 100.449L717.635 91.5491L715.965 92.6509L721.84 101.551L723.51 100.449ZM715.8 92.1V101H717.8V92.1H715.8ZM716.8 100H711.25V102H716.8V100ZM712.25 101V83.3H710.25V101H712.25ZM711.25 84.3H716.8V82.3H711.25V84.3ZM715.961 83.8445L721.836 92.8945L723.514 91.8055L717.639 82.7555L715.961 83.8445ZM723.675 92.35V83.3H721.675V92.35H723.675ZM722.675 84.3H728.225V82.3H722.675V84.3ZM727.225 83.3V101H729.225V83.3H727.225ZM736.282 87.725V86.725H735.282V87.725H736.282ZM736.282 89.9H735.282V90.9H736.282V89.9ZM741.782 89.9H742.782V88.9H741.782V89.9ZM741.782 94.075V95.075H742.782V94.075H741.782ZM736.282 94.075V93.075H735.282V94.075H736.282ZM736.282 96.575H735.282V97.575H736.282V96.575ZM742.532 96.575H743.532V95.575H742.532V96.575ZM742.532 101V102H743.532V101H742.532ZM730.732 101H729.732V102H730.732V101ZM730.732 83.3V82.3H729.732V83.3H730.732ZM742.532 83.3H743.532V82.3H742.532V83.3ZM742.532 87.725V88.725H743.532V87.725H742.532ZM735.282 87.725V89.9H737.282V87.725H735.282ZM736.282 90.9H741.782V88.9H736.282V90.9ZM740.782 89.9V94.075H742.782V89.9H740.782ZM741.782 93.075H736.282V95.075H741.782V93.075ZM735.282 94.075V96.575H737.282V94.075H735.282ZM736.282 97.575H742.532V95.575H736.282V97.575ZM741.532 96.575V101H743.532V96.575H741.532ZM742.532 100H730.732V102H742.532V100ZM731.732 101V83.3H729.732V101H731.732ZM730.732 84.3H742.532V82.3H730.732V84.3ZM741.532 83.3V87.725H743.532V83.3H741.532ZM742.532 86.725H736.282V88.725H742.532V86.725ZM770.124 83.3L771.099 83.523L771.379 82.3H770.124V83.3ZM766.074 101V102H766.871L767.049 101.223L766.074 101ZM759.174 101L758.194 101.2L758.357 102H759.174V101ZM757.124 90.95L758.104 90.7501L756.144 90.7501L757.124 90.95ZM755.074 101V102H755.891L756.054 101.2L755.074 101ZM748.174 101L747.199 101.223L747.377 102H748.174V101ZM744.124 83.3V82.3H742.869L743.149 83.523L744.124 83.3ZM750.099 83.3L751.089 83.158L750.966 82.3H750.099V83.3ZM751.699 94.45L750.709 94.592L752.677 94.6604L751.699 94.45ZM754.099 83.3V82.3H753.291L753.121 83.0896L754.099 83.3ZM760.149 83.3L761.127 83.0896L760.957 82.3H760.149V83.3ZM762.549 94.45L761.571 94.6604L763.539 94.592L762.549 94.45ZM764.149 83.3V82.3H763.282L763.159 83.158L764.149 83.3ZM769.149 83.077L765.099 100.777L767.049 101.223L771.099 83.523L769.149 83.077ZM766.074 100H759.174V102H766.074V100ZM760.154 100.8L758.104 90.7501L756.144 91.1499L758.194 101.2L760.154 100.8ZM756.144 90.7501L754.094 100.8L756.054 101.2L758.104 91.1499L756.144 90.7501ZM755.074 100H748.174V102H755.074V100ZM749.149 100.777L745.099 83.077L743.149 83.523L747.199 101.223L749.149 100.777ZM744.124 84.3H750.099V82.3H744.124V84.3ZM749.109 83.442L750.709 94.592L752.689 94.308L751.089 83.158L749.109 83.442ZM752.677 94.6604L755.077 83.5104L753.121 83.0896L750.721 94.2396L752.677 94.6604ZM754.099 84.3H760.149V82.3H754.099V84.3ZM759.171 83.5104L761.571 94.6604L763.527 94.2396L761.127 83.0896L759.171 83.5104ZM763.539 94.592L765.139 83.442L763.159 83.158L761.559 94.308L763.539 94.592ZM764.149 84.3H770.124V82.3H764.149V84.3Z" fill="white" mask="url(#path-11-outside-2_425_140)"/>
<mask id="path-13-outside-3_425_140" maskUnits="userSpaceOnUse" x="710" y="124" width="62" height="20" fill="black">
<rect fill="white" x="710" y="124" width="62" height="20"/>
<path d="M728.225 143H722.675L716.8 134.1V143H711.25V125.3H716.8L722.675 134.35V125.3H728.225V143ZM736.282 129.725V131.9H741.782V136.075H736.282V138.575H742.532V143H730.732V125.3H742.532V129.725H736.282ZM770.124 125.3L766.074 143H759.174L757.124 132.95L755.074 143H748.174L744.124 125.3H750.099L751.699 136.45L754.099 125.3H760.149L762.549 136.45L764.149 125.3H770.124Z"/>
</mask>
<path d="M728.225 143V144H729.225V143H728.225ZM722.675 143L721.84 143.551L722.137 144H722.675V143ZM716.8 134.1L717.635 133.549L715.8 130.77V134.1H716.8ZM716.8 143V144H717.8V143H716.8ZM711.25 143H710.25V144H711.25V143ZM711.25 125.3V124.3H710.25V125.3H711.25ZM716.8 125.3L717.639 124.756L717.343 124.3H716.8V125.3ZM722.675 134.35L721.836 134.894L723.675 137.727V134.35H722.675ZM722.675 125.3V124.3H721.675V125.3H722.675ZM728.225 125.3H729.225V124.3H728.225V125.3ZM728.225 142H722.675V144H728.225V142ZM723.51 142.449L717.635 133.549L715.965 134.651L721.84 143.551L723.51 142.449ZM715.8 134.1V143H717.8V134.1H715.8ZM716.8 142H711.25V144H716.8V142ZM712.25 143V125.3H710.25V143H712.25ZM711.25 126.3H716.8V124.3H711.25V126.3ZM715.961 125.844L721.836 134.894L723.514 133.805L717.639 124.756L715.961 125.844ZM723.675 134.35V125.3H721.675V134.35H723.675ZM722.675 126.3H728.225V124.3H722.675V126.3ZM727.225 125.3V143H729.225V125.3H727.225ZM736.282 129.725V128.725H735.282V129.725H736.282ZM736.282 131.9H735.282V132.9H736.282V131.9ZM741.782 131.9H742.782V130.9H741.782V131.9ZM741.782 136.075V137.075H742.782V136.075H741.782ZM736.282 136.075V135.075H735.282V136.075H736.282ZM736.282 138.575H735.282V139.575H736.282V138.575ZM742.532 138.575H743.532V137.575H742.532V138.575ZM742.532 143V144H743.532V143H742.532ZM730.732 143H729.732V144H730.732V143ZM730.732 125.3V124.3H729.732V125.3H730.732ZM742.532 125.3H743.532V124.3H742.532V125.3ZM742.532 129.725V130.725H743.532V129.725H742.532ZM735.282 129.725V131.9H737.282V129.725H735.282ZM736.282 132.9H741.782V130.9H736.282V132.9ZM740.782 131.9V136.075H742.782V131.9H740.782ZM741.782 135.075H736.282V137.075H741.782V135.075ZM735.282 136.075V138.575H737.282V136.075H735.282ZM736.282 139.575H742.532V137.575H736.282V139.575ZM741.532 138.575V143H743.532V138.575H741.532ZM742.532 142H730.732V144H742.532V142ZM731.732 143V125.3H729.732V143H731.732ZM730.732 126.3H742.532V124.3H730.732V126.3ZM741.532 125.3V129.725H743.532V125.3H741.532ZM742.532 128.725H736.282V130.725H742.532V128.725ZM770.124 125.3L771.099 125.523L771.379 124.3H770.124V125.3ZM766.074 143V144H766.871L767.049 143.223L766.074 143ZM759.174 143L758.194 143.2L758.357 144H759.174V143ZM757.124 132.95L758.104 132.75L756.144 132.75L757.124 132.95ZM755.074 143V144H755.891L756.054 143.2L755.074 143ZM748.174 143L747.199 143.223L747.377 144H748.174V143ZM744.124 125.3V124.3H742.869L743.149 125.523L744.124 125.3ZM750.099 125.3L751.089 125.158L750.966 124.3H750.099V125.3ZM751.699 136.45L750.709 136.592L752.677 136.66L751.699 136.45ZM754.099 125.3V124.3H753.291L753.121 125.09L754.099 125.3ZM760.149 125.3L761.127 125.09L760.957 124.3H760.149V125.3ZM762.549 136.45L761.571 136.66L763.539 136.592L762.549 136.45ZM764.149 125.3V124.3H763.282L763.159 125.158L764.149 125.3ZM769.149 125.077L765.099 142.777L767.049 143.223L771.099 125.523L769.149 125.077ZM766.074 142H759.174V144H766.074V142ZM760.154 142.8L758.104 132.75L756.144 133.15L758.194 143.2L760.154 142.8ZM756.144 132.75L754.094 142.8L756.054 143.2L758.104 133.15L756.144 132.75ZM755.074 142H748.174V144H755.074V142ZM749.149 142.777L745.099 125.077L743.149 125.523L747.199 143.223L749.149 142.777ZM744.124 126.3H750.099V124.3H744.124V126.3ZM749.109 125.442L750.709 136.592L752.689 136.308L751.089 125.158L749.109 125.442ZM752.677 136.66L755.077 125.51L753.121 125.09L750.721 136.24L752.677 136.66ZM754.099 126.3H760.149V124.3H754.099V126.3ZM759.171 125.51L761.571 136.66L763.527 136.24L761.127 125.09L759.171 125.51ZM763.539 136.592L765.139 125.442L763.159 125.158L761.559 136.308L763.539 136.592ZM764.149 126.3H770.124V124.3H764.149V126.3Z" fill="white" mask="url(#path-13-outside-3_425_140)"/>
<mask id="path-15-outside-4_425_140" maskUnits="userSpaceOnUse" x="710" y="170" width="62" height="20" fill="black">
<rect fill="white" x="710" y="170" width="62" height="20"/>
<path d="M728.225 189H722.675L716.8 180.1V189H711.25V171.3H716.8L722.675 180.35V171.3H728.225V189ZM736.282 175.725V177.9H741.782V182.075H736.282V184.575H742.532V189H730.732V171.3H742.532V175.725H736.282ZM770.124 171.3L766.074 189H759.174L757.124 178.95L755.074 189H748.174L744.124 171.3H750.099L751.699 182.45L754.099 171.3H760.149L762.549 182.45L764.149 171.3H770.124Z"/>
</mask>
<path d="M728.225 189V190H729.225V189H728.225ZM722.675 189L721.84 189.551L722.137 190H722.675V189ZM716.8 180.1L717.635 179.549L715.8 176.77V180.1H716.8ZM716.8 189V190H717.8V189H716.8ZM711.25 189H710.25V190H711.25V189ZM711.25 171.3V170.3H710.25V171.3H711.25ZM716.8 171.3L717.639 170.756L717.343 170.3H716.8V171.3ZM722.675 180.35L721.836 180.894L723.675 183.727V180.35H722.675ZM722.675 171.3V170.3H721.675V171.3H722.675ZM728.225 171.3H729.225V170.3H728.225V171.3ZM728.225 188H722.675V190H728.225V188ZM723.51 188.449L717.635 179.549L715.965 180.651L721.84 189.551L723.51 188.449ZM715.8 180.1V189H717.8V180.1H715.8ZM716.8 188H711.25V190H716.8V188ZM712.25 189V171.3H710.25V189H712.25ZM711.25 172.3H716.8V170.3H711.25V172.3ZM715.961 171.844L721.836 180.894L723.514 179.805L717.639 170.756L715.961 171.844ZM723.675 180.35V171.3H721.675V180.35H723.675ZM722.675 172.3H728.225V170.3H722.675V172.3ZM727.225 171.3V189H729.225V171.3H727.225ZM736.282 175.725V174.725H735.282V175.725H736.282ZM736.282 177.9H735.282V178.9H736.282V177.9ZM741.782 177.9H742.782V176.9H741.782V177.9ZM741.782 182.075V183.075H742.782V182.075H741.782ZM736.282 182.075V181.075H735.282V182.075H736.282ZM736.282 184.575H735.282V185.575H736.282V184.575ZM742.532 184.575H743.532V183.575H742.532V184.575ZM742.532 189V190H743.532V189H742.532ZM730.732 189H729.732V190H730.732V189ZM730.732 171.3V170.3H729.732V171.3H730.732ZM742.532 171.3H743.532V170.3H742.532V171.3ZM742.532 175.725V176.725H743.532V175.725H742.532ZM735.282 175.725V177.9H737.282V175.725H735.282ZM736.282 178.9H741.782V176.9H736.282V178.9ZM740.782 177.9V182.075H742.782V177.9H740.782ZM741.782 181.075H736.282V183.075H741.782V181.075ZM735.282 182.075V184.575H737.282V182.075H735.282ZM736.282 185.575H742.532V183.575H736.282V185.575ZM741.532 184.575V189H743.532V184.575H741.532ZM742.532 188H730.732V190H742.532V188ZM731.732 189V171.3H729.732V189H731.732ZM730.732 172.3H742.532V170.3H730.732V172.3ZM741.532 171.3V175.725H743.532V171.3H741.532ZM742.532 174.725H736.282V176.725H742.532V174.725ZM770.124 171.3L771.099 171.523L771.379 170.3H770.124V171.3ZM766.074 189V190H766.871L767.049 189.223L766.074 189ZM759.174 189L758.194 189.2L758.357 190H759.174V189ZM757.124 178.95L758.104 178.75L756.144 178.75L757.124 178.95ZM755.074 189V190H755.891L756.054 189.2L755.074 189ZM748.174 189L747.199 189.223L747.377 190H748.174V189ZM744.124 171.3V170.3H742.869L743.149 171.523L744.124 171.3ZM750.099 171.3L751.089 171.158L750.966 170.3H750.099V171.3ZM751.699 182.45L750.709 182.592L752.677 182.66L751.699 182.45ZM754.099 171.3V170.3H753.291L753.121 171.09L754.099 171.3ZM760.149 171.3L761.127 171.09L760.957 170.3H760.149V171.3ZM762.549 182.45L761.571 182.66L763.539 182.592L762.549 182.45ZM764.149 171.3V170.3H763.282L763.159 171.158L764.149 171.3ZM769.149 171.077L765.099 188.777L767.049 189.223L771.099 171.523L769.149 171.077ZM766.074 188H759.174V190H766.074V188ZM760.154 188.8L758.104 178.75L756.144 179.15L758.194 189.2L760.154 188.8ZM756.144 178.75L754.094 188.8L756.054 189.2L758.104 179.15L756.144 178.75ZM755.074 188H748.174V190H755.074V188ZM749.149 188.777L745.099 171.077L743.149 171.523L747.199 189.223L749.149 188.777ZM744.124 172.3H750.099V170.3H744.124V172.3ZM749.109 171.442L750.709 182.592L752.689 182.308L751.089 171.158L749.109 171.442ZM752.677 182.66L755.077 171.51L753.121 171.09L750.721 182.24L752.677 182.66ZM754.099 172.3H760.149V170.3H754.099V172.3ZM759.171 171.51L761.571 182.66L763.527 182.24L761.127 171.09L759.171 171.51ZM763.539 182.592L765.139 171.442L763.159 171.158L761.559 182.308L763.539 182.592ZM764.149 172.3H770.124V170.3H764.149V172.3Z" fill="white" mask="url(#path-15-outside-4_425_140)"/>
<mask id="path-17-outside-5_425_140" maskUnits="userSpaceOnUse" x="710" y="212" width="62" height="20" fill="black">
<rect fill="white" x="710" y="212" width="62" height="20"/>
<path d="M728.225 231H722.675L716.8 222.1V231H711.25V213.3H716.8L722.675 222.35V213.3H728.225V231ZM736.282 217.725V219.9H741.782V224.075H736.282V226.575H742.532V231H730.732V213.3H742.532V217.725H736.282ZM770.124 213.3L766.074 231H759.174L757.124 220.95L755.074 231H748.174L744.124 213.3H750.099L751.699 224.45L754.099 213.3H760.149L762.549 224.45L764.149 213.3H770.124Z"/>
</mask>
<path d="M728.225 231V232H729.225V231H728.225ZM722.675 231L721.84 231.551L722.137 232H722.675V231ZM716.8 222.1L717.635 221.549L715.8 218.77V222.1H716.8ZM716.8 231V232H717.8V231H716.8ZM711.25 231H710.25V232H711.25V231ZM711.25 213.3V212.3H710.25V213.3H711.25ZM716.8 213.3L717.639 212.756L717.343 212.3H716.8V213.3ZM722.675 222.35L721.836 222.894L723.675 225.727V222.35H722.675ZM722.675 213.3V212.3H721.675V213.3H722.675ZM728.225 213.3H729.225V212.3H728.225V213.3ZM728.225 230H722.675V232H728.225V230ZM723.51 230.449L717.635 221.549L715.965 222.651L721.84 231.551L723.51 230.449ZM715.8 222.1V231H717.8V222.1H715.8ZM716.8 230H711.25V232H716.8V230ZM712.25 231V213.3H710.25V231H712.25ZM711.25 214.3H716.8V212.3H711.25V214.3ZM715.961 213.844L721.836 222.894L723.514 221.805L717.639 212.756L715.961 213.844ZM723.675 222.35V213.3H721.675V222.35H723.675ZM722.675 214.3H728.225V212.3H722.675V214.3ZM727.225 213.3V231H729.225V213.3H727.225ZM736.282 217.725V216.725H735.282V217.725H736.282ZM736.282 219.9H735.282V220.9H736.282V219.9ZM741.782 219.9H742.782V218.9H741.782V219.9ZM741.782 224.075V225.075H742.782V224.075H741.782ZM736.282 224.075V223.075H735.282V224.075H736.282ZM736.282 226.575H735.282V227.575H736.282V226.575ZM742.532 226.575H743.532V225.575H742.532V226.575ZM742.532 231V232H743.532V231H742.532ZM730.732 231H729.732V232H730.732V231ZM730.732 213.3V212.3H729.732V213.3H730.732ZM742.532 213.3H743.532V212.3H742.532V213.3ZM742.532 217.725V218.725H743.532V217.725H742.532ZM735.282 217.725V219.9H737.282V217.725H735.282ZM736.282 220.9H741.782V218.9H736.282V220.9ZM740.782 219.9V224.075H742.782V219.9H740.782ZM741.782 223.075H736.282V225.075H741.782V223.075ZM735.282 224.075V226.575H737.282V224.075H735.282ZM736.282 227.575H742.532V225.575H736.282V227.575ZM741.532 226.575V231H743.532V226.575H741.532ZM742.532 230H730.732V232H742.532V230ZM731.732 231V213.3H729.732V231H731.732ZM730.732 214.3H742.532V212.3H730.732V214.3ZM741.532 213.3V217.725H743.532V213.3H741.532ZM742.532 216.725H736.282V218.725H742.532V216.725ZM770.124 213.3L771.099 213.523L771.379 212.3H770.124V213.3ZM766.074 231V232H766.871L767.049 231.223L766.074 231ZM759.174 231L758.194 231.2L758.357 232H759.174V231ZM757.124 220.95L758.104 220.75L756.144 220.75L757.124 220.95ZM755.074 231V232H755.891L756.054 231.2L755.074 231ZM748.174 231L747.199 231.223L747.377 232H748.174V231ZM744.124 213.3V212.3H742.869L743.149 213.523L744.124 213.3ZM750.099 213.3L751.089 213.158L750.966 212.3H750.099V213.3ZM751.699 224.45L750.709 224.592L752.677 224.66L751.699 224.45ZM754.099 213.3V212.3H753.291L753.121 213.09L754.099 213.3ZM760.149 213.3L761.127 213.09L760.957 212.3H760.149V213.3ZM762.549 224.45L761.571 224.66L763.539 224.592L762.549 224.45ZM764.149 213.3V212.3H763.282L763.159 213.158L764.149 213.3ZM769.149 213.077L765.099 230.777L767.049 231.223L771.099 213.523L769.149 213.077ZM766.074 230H759.174V232H766.074V230ZM760.154 230.8L758.104 220.75L756.144 221.15L758.194 231.2L760.154 230.8ZM756.144 220.75L754.094 230.8L756.054 231.2L758.104 221.15L756.144 220.75ZM755.074 230H748.174V232H755.074V230ZM749.149 230.777L745.099 213.077L743.149 213.523L747.199 231.223L749.149 230.777ZM744.124 214.3H750.099V212.3H744.124V214.3ZM749.109 213.442L750.709 224.592L752.689 224.308L751.089 213.158L749.109 213.442ZM752.677 224.66L755.077 213.51L753.121 213.09L750.721 224.24L752.677 224.66ZM754.099 214.3H760.149V212.3H754.099V214.3ZM759.171 213.51L761.571 224.66L763.527 224.24L761.127 213.09L759.171 213.51ZM763.539 224.592L765.139 213.442L763.159 213.158L761.559 224.308L763.539 224.592ZM764.149 214.3H770.124V212.3H764.149V214.3Z" fill="white" mask="url(#path-17-outside-5_425_140)"/>
<mask id="path-19-outside-6_425_140" maskUnits="userSpaceOnUse" x="710" y="258" width="62" height="20" fill="black">
<rect fill="white" x="710" y="258" width="62" height="20"/>
<path d="M728.225 277H722.675L716.8 268.1V277H711.25V259.3H716.8L722.675 268.35V259.3H728.225V277ZM736.282 263.725V265.9H741.782V270.075H736.282V272.575H742.532V277H730.732V259.3H742.532V263.725H736.282ZM770.124 259.3L766.074 277H759.174L757.124 266.95L755.074 277H748.174L744.124 259.3H750.099L751.699 270.45L754.099 259.3H760.149L762.549 270.45L764.149 259.3H770.124Z"/>
</mask>
<path d="M728.225 277V278H729.225V277H728.225ZM722.675 277L721.84 277.551L722.137 278H722.675V277ZM716.8 268.1L717.635 267.549L715.8 264.77V268.1H716.8ZM716.8 277V278H717.8V277H716.8ZM711.25 277H710.25V278H711.25V277ZM711.25 259.3V258.3H710.25V259.3H711.25ZM716.8 259.3L717.639 258.756L717.343 258.3H716.8V259.3ZM722.675 268.35L721.836 268.894L723.675 271.727V268.35H722.675ZM722.675 259.3V258.3H721.675V259.3H722.675ZM728.225 259.3H729.225V258.3H728.225V259.3ZM728.225 276H722.675V278H728.225V276ZM723.51 276.449L717.635 267.549L715.965 268.651L721.84 277.551L723.51 276.449ZM715.8 268.1V277H717.8V268.1H715.8ZM716.8 276H711.25V278H716.8V276ZM712.25 277V259.3H710.25V277H712.25ZM711.25 260.3H716.8V258.3H711.25V260.3ZM715.961 259.844L721.836 268.894L723.514 267.805L717.639 258.756L715.961 259.844ZM723.675 268.35V259.3H721.675V268.35H723.675ZM722.675 260.3H728.225V258.3H722.675V260.3ZM727.225 259.3V277H729.225V259.3H727.225ZM736.282 263.725V262.725H735.282V263.725H736.282ZM736.282 265.9H735.282V266.9H736.282V265.9ZM741.782 265.9H742.782V264.9H741.782V265.9ZM741.782 270.075V271.075H742.782V270.075H741.782ZM736.282 270.075V269.075H735.282V270.075H736.282ZM736.282 272.575H735.282V273.575H736.282V272.575ZM742.532 272.575H743.532V271.575H742.532V272.575ZM742.532 277V278H743.532V277H742.532ZM730.732 277H729.732V278H730.732V277ZM730.732 259.3V258.3H729.732V259.3H730.732ZM742.532 259.3H743.532V258.3H742.532V259.3ZM742.532 263.725V264.725H743.532V263.725H742.532ZM735.282 263.725V265.9H737.282V263.725H735.282ZM736.282 266.9H741.782V264.9H736.282V266.9ZM740.782 265.9V270.075H742.782V265.9H740.782ZM741.782 269.075H736.282V271.075H741.782V269.075ZM735.282 270.075V272.575H737.282V270.075H735.282ZM736.282 273.575H742.532V271.575H736.282V273.575ZM741.532 272.575V277H743.532V272.575H741.532ZM742.532 276H730.732V278H742.532V276ZM731.732 277V259.3H729.732V277H731.732ZM730.732 260.3H742.532V258.3H730.732V260.3ZM741.532 259.3V263.725H743.532V259.3H741.532ZM742.532 262.725H736.282V264.725H742.532V262.725ZM770.124 259.3L771.099 259.523L771.379 258.3H770.124V259.3ZM766.074 277V278H766.871L767.049 277.223L766.074 277ZM759.174 277L758.194 277.2L758.357 278H759.174V277ZM757.124 266.95L758.104 266.75L756.144 266.75L757.124 266.95ZM755.074 277V278H755.891L756.054 277.2L755.074 277ZM748.174 277L747.199 277.223L747.377 278H748.174V277ZM744.124 259.3V258.3H742.869L743.149 259.523L744.124 259.3ZM750.099 259.3L751.089 259.158L750.966 258.3H750.099V259.3ZM751.699 270.45L750.709 270.592L752.677 270.66L751.699 270.45ZM754.099 259.3V258.3H753.291L753.121 259.09L754.099 259.3ZM760.149 259.3L761.127 259.09L760.957 258.3H760.149V259.3ZM762.549 270.45L761.571 270.66L763.539 270.592L762.549 270.45ZM764.149 259.3V258.3H763.282L763.159 259.158L764.149 259.3ZM769.149 259.077L765.099 276.777L767.049 277.223L771.099 259.523L769.149 259.077ZM766.074 276H759.174V278H766.074V276ZM760.154 276.8L758.104 266.75L756.144 267.15L758.194 277.2L760.154 276.8ZM756.144 266.75L754.094 276.8L756.054 277.2L758.104 267.15L756.144 266.75ZM755.074 276H748.174V278H755.074V276ZM749.149 276.777L745.099 259.077L743.149 259.523L747.199 277.223L749.149 276.777ZM744.124 260.3H750.099V258.3H744.124V260.3ZM749.109 259.442L750.709 270.592L752.689 270.308L751.089 259.158L749.109 259.442ZM752.677 270.66L755.077 259.51L753.121 259.09L750.721 270.24L752.677 270.66ZM754.099 260.3H760.149V258.3H754.099V260.3ZM759.171 259.51L761.571 270.66L763.527 270.24L761.127 259.09L759.171 259.51ZM763.539 270.592L765.139 259.442L763.159 259.158L761.559 270.308L763.539 270.592ZM764.149 260.3H770.124V258.3H764.149V260.3Z" fill="white" mask="url(#path-19-outside-6_425_140)"/>
<path d="M409.6 184V221H398.5V184H409.6ZM420.213 190.55C418.28 190.55 416.73 190.033 415.563 189C414.397 187.967 413.813 186.667 413.813 185.1C413.813 183.5 414.397 182.183 415.563 181.15C416.73 180.083 418.28 179.55 420.213 179.55C422.113 179.55 423.647 180.083 424.813 181.15C425.98 182.183 426.563 183.5 426.563 185.1C426.563 186.667 425.98 187.967 424.813 189C423.647 190.033 422.113 190.55 420.213 190.55ZM425.713 192.8V221H414.613V192.8H425.713ZM441.827 196.65C442.527 195.35 443.527 194.333 444.827 193.6C446.16 192.833 447.743 192.45 449.577 192.45C451.777 192.45 453.76 193.033 455.527 194.2C457.293 195.333 458.677 197 459.677 199.2C460.71 201.367 461.227 203.933 461.227 206.9C461.227 209.867 460.71 212.45 459.677 214.65C458.677 216.817 457.293 218.483 455.527 219.65C453.76 220.783 451.777 221.35 449.577 221.35C447.743 221.35 446.16 220.983 444.827 220.25C443.527 219.483 442.527 218.45 441.827 217.15V221H430.727V184H441.827V196.65ZM449.977 206.9C449.977 205.4 449.593 204.233 448.827 203.4C448.06 202.567 447.077 202.15 445.877 202.15C444.677 202.15 443.693 202.567 442.927 203.4C442.16 204.233 441.777 205.4 441.777 206.9C441.777 208.4 442.16 209.567 442.927 210.4C443.693 211.233 444.677 211.65 445.877 211.65C447.077 211.65 448.06 211.233 448.827 210.4C449.593 209.567 449.977 208.4 449.977 206.9ZM475.811 198C476.944 196.367 478.328 195.067 479.961 194.1C481.594 193.1 483.294 192.6 485.061 192.6V204.45H481.911C479.811 204.45 478.261 204.817 477.261 205.55C476.294 206.283 475.811 207.583 475.811 209.45V221H464.711V192.8H475.811V198ZM486.551 206.9C486.551 203.933 487.051 201.367 488.051 199.2C489.084 197 490.484 195.333 492.251 194.2C494.017 193.033 496.001 192.45 498.201 192.45C500.034 192.45 501.617 192.833 502.951 193.6C504.284 194.333 505.301 195.35 506.001 196.65V192.8H517.051V221H506.001V217.15C505.301 218.45 504.284 219.483 502.951 220.25C501.617 220.983 500.034 221.35 498.201 221.35C496.001 221.35 494.017 220.783 492.251 219.65C490.484 218.483 489.084 216.817 488.051 214.65C487.051 212.45 486.551 209.867 486.551 206.9ZM506.001 206.9C506.001 205.4 505.617 204.233 504.851 203.4C504.084 202.567 503.101 202.15 501.901 202.15C500.701 202.15 499.717 202.567 498.951 203.4C498.184 204.233 497.801 205.4 497.801 206.9C497.801 208.4 498.184 209.567 498.951 210.4C499.717 211.233 500.701 211.65 501.901 211.65C503.101 211.65 504.084 211.233 504.851 210.4C505.617 209.567 506.001 208.4 506.001 206.9ZM533.135 198C534.268 196.367 535.652 195.067 537.285 194.1C538.918 193.1 540.618 192.6 542.385 192.6V204.45H539.235C537.135 204.45 535.585 204.817 534.585 205.55C533.618 206.283 533.135 207.583 533.135 209.45V221H522.035V192.8H533.135V198ZM577.225 192.8L559.175 234.5H547.025L554.125 219.6L542.375 192.8H554.725L560.025 207.1L564.975 192.8H577.225Z" fill="white"/>
<circle cx="236" cy="264" r="9" fill="url(#paint1_linear_425_140)" fill-opacity="0.5"/>
<circle cx="287" cy="82" r="9" fill="url(#paint2_linear_425_140)" fill-opacity="0.5"/>
<circle cx="454" cy="264" r="9" fill="url(#paint3_linear_425_140)" fill-opacity="0.5"/>
<circle cx="614" cy="106" r="9" fill="url(#paint4_linear_425_140)" fill-opacity="0.5"/>
<circle cx="472" cy="46" r="9" fill="url(#paint5_linear_425_140)" fill-opacity="0.5"/>
<circle cx="154" cy="37" r="9" fill="url(#paint6_linear_425_140)" fill-opacity="0.5"/>
<circle cx="163" cy="224" r="9" fill="url(#paint7_linear_425_140)" fill-opacity="0.5"/>
<circle cx="623" cy="273" r="9" fill="url(#paint8_linear_425_140)" fill-opacity="0.5"/>
<circle cx="586" cy="37" r="9" fill="url(#paint9_linear_425_140)" fill-opacity="0.5"/>
<circle cx="661" cy="55" r="9" fill="url(#paint10_linear_425_140)" fill-opacity="0.5"/>
<circle cx="344" cy="282" r="9" fill="url(#paint11_linear_425_140)" fill-opacity="0.5"/>
<defs>
<linearGradient id="paint0_linear_425_140" x1="394.5" y1="65" x2="394.5" y2="215" gradientUnits="userSpaceOnUse">
<stop stop-color="#FF71DB"/>
<stop offset="1" stop-color="#691AC2"/>
</linearGradient>
<linearGradient id="paint1_linear_425_140" x1="236" y1="255" x2="236" y2="273" gradientUnits="userSpaceOnUse">
<stop stop-color="#4B4EE7"/>
<stop offset="1" stop-color="#FF71DB"/>
</linearGradient>
<linearGradient id="paint2_linear_425_140" x1="287" y1="73" x2="287" y2="91" gradientUnits="userSpaceOnUse">
<stop stop-color="#4B4EE7"/>
<stop offset="1" stop-color="#FF71DB"/>
</linearGradient>
<linearGradient id="paint3_linear_425_140" x1="454" y1="255" x2="454" y2="273" gradientUnits="userSpaceOnUse">
<stop stop-color="#4B4EE7"/>
<stop offset="1" stop-color="#FF71DB"/>
</linearGradient>
<linearGradient id="paint4_linear_425_140" x1="614" y1="97" x2="614" y2="115" gradientUnits="userSpaceOnUse">
<stop stop-color="#4B4EE7"/>
<stop offset="1" stop-color="#FF71DB"/>
</linearGradient>
<linearGradient id="paint5_linear_425_140" x1="472" y1="37" x2="472" y2="55" gradientUnits="userSpaceOnUse">
<stop stop-color="#4B4EE7"/>
<stop offset="1" stop-color="#FF71DB"/>
</linearGradient>
<linearGradient id="paint6_linear_425_140" x1="154" y1="28" x2="154" y2="46" gradientUnits="userSpaceOnUse">
<stop stop-color="#4B4EE7"/>
<stop offset="1" stop-color="#FF71DB"/>
</linearGradient>
<linearGradient id="paint7_linear_425_140" x1="163" y1="215" x2="163" y2="233" gradientUnits="userSpaceOnUse">
<stop stop-color="#4B4EE7"/>
<stop offset="1" stop-color="#FF71DB"/>
</linearGradient>
<linearGradient id="paint8_linear_425_140" x1="623" y1="264" x2="623" y2="282" gradientUnits="userSpaceOnUse">
<stop stop-color="#4B4EE7"/>
<stop offset="1" stop-color="#FF71DB"/>
</linearGradient>
<linearGradient id="paint9_linear_425_140" x1="586" y1="28" x2="586" y2="46" gradientUnits="userSpaceOnUse">
<stop stop-color="#4B4EE7"/>
<stop offset="1" stop-color="#FF71DB"/>
</linearGradient>
<linearGradient id="paint10_linear_425_140" x1="661" y1="46" x2="661" y2="64" gradientUnits="userSpaceOnUse">
<stop stop-color="#4B4EE7"/>
<stop offset="1" stop-color="#FF71DB"/>
</linearGradient>
<linearGradient id="paint11_linear_425_140" x1="344" y1="273" x2="344" y2="291" gradientUnits="userSpaceOnUse">
<stop stop-color="#4B4EE7"/>
<stop offset="1" stop-color="#FF71DB"/>
</linearGradient>
</defs>
</svg>
